<svg width="10" height="16" viewBox="0 0 10 16" fill="none" xmlns="http://www.w3.org/2000/svg">
<path d="M5.8335 6.50008H9.5835L9.16683 8.16675H5.8335V15.6667H4.16683V8.16675H0.833496V6.50008H4.16683V4.94008C4.16683 3.45425 4.32183 2.91508 4.61183 2.37175C4.896 1.83492 5.335 1.39592 5.87183 1.11175C6.41516 0.821748 6.95433 0.666748 8.44016 0.666748C8.87516 0.666748 9.25683 0.708415 9.5835 0.791748V2.33341H8.44016C7.33683 2.33341 7.001 2.39841 6.6585 2.58175C6.40516 2.71675 6.21683 2.90508 6.08183 3.15841C5.8985 3.50091 5.8335 3.83675 5.8335 4.94008V6.50008Z" fill="#CCD2E9"/>
</svg>
