<svg width="109" height="36" viewBox="0 0 109 36" fill="none" xmlns="http://www.w3.org/2000/svg">
<path d="M46.385 18.4617C46.385 23.4587 42.3816 27.1409 37.4686 27.1409C32.5556 27.1409 28.5522 23.4587 28.5522 18.4617C28.5522 13.4295 32.5556 9.78259 37.4686 9.78259C42.3816 9.78259 46.385 13.4295 46.385 18.4617ZM42.4818 18.4617C42.4818 15.3391 40.1615 13.2026 37.4686 13.2026C34.7757 13.2026 32.4554 15.3391 32.4554 18.4617C32.4554 21.553 34.7757 23.7209 37.4686 23.7209C40.1615 23.7209 42.4818 21.5491 42.4818 18.4617Z" fill="#BCC3DC"/>
<path d="M65.6203 18.4617C65.6203 23.4587 61.617 27.1409 56.704 27.1409C51.7909 27.1409 47.7876 23.4587 47.7876 18.4617C47.7876 13.4335 51.7909 9.78259 56.704 9.78259C61.617 9.78259 65.6203 13.4295 65.6203 18.4617ZM61.7172 18.4617C61.7172 15.3391 59.3969 13.2026 56.704 13.2026C54.011 13.2026 51.6908 15.3391 51.6908 18.4617C51.6908 21.553 54.011 23.7209 56.704 23.7209C59.3969 23.7209 61.7172 21.5491 61.7172 18.4617Z" fill="#BCC3DC"/>
<path d="M84.0544 10.3069V25.8887C84.0544 32.2982 80.1833 34.9161 75.6069 34.9161C71.299 34.9161 68.7062 32.1026 67.7284 29.8017L71.1267 28.4204C71.7318 29.833 73.2145 31.5 75.6029 31.5C78.5323 31.5 80.3476 29.7352 80.3476 26.413V25.1648H80.2114C79.3378 26.2174 77.6547 27.1369 75.5308 27.1369C71.0866 27.1369 67.0151 23.3569 67.0151 18.493C67.0151 13.5939 71.0866 9.78259 75.5308 9.78259C77.6507 9.78259 79.3337 10.7022 80.2114 11.7235H80.3476V10.3109H84.0544V10.3069ZM80.6241 18.493C80.6241 15.4369 78.5363 13.2026 75.8794 13.2026C73.1865 13.2026 70.9303 15.4369 70.9303 18.493C70.9303 21.5178 73.1865 23.7209 75.8794 23.7209C78.5363 23.7209 80.6241 21.5178 80.6241 18.493Z" fill="#BCC3DC"/>
<path d="M90.1654 1.17395V26.6087H86.3584V1.17395H90.1654Z" fill="#BCC3DC"/>
<path d="M105.001 21.3183L108.03 23.2904C107.053 24.703 104.696 27.1369 100.625 27.1369C95.5756 27.1369 91.8047 23.3256 91.8047 18.4578C91.8047 13.2965 95.6077 9.77869 100.188 9.77869C104.801 9.77869 107.057 13.363 107.794 15.3L108.199 16.2861L96.317 21.0913C97.2266 22.8326 98.6412 23.7209 100.625 23.7209C102.613 23.7209 103.991 22.7661 105.001 21.3183ZM95.6758 18.1956L103.618 14.9752C103.182 13.8913 101.867 13.1361 100.32 13.1361C98.3367 13.1361 95.5756 14.8461 95.6758 18.1956Z" fill="#BCC3DC"/>
<path d="M14.1417 16.204V12.5218H26.849C26.9733 13.1635 27.0374 13.9227 27.0374 14.7444C27.0374 17.507 26.264 20.9231 23.7714 23.357C21.3469 25.8222 18.2493 27.137 14.1457 27.137C6.53978 27.137 0.144043 21.0874 0.144043 13.6605C0.144043 6.23352 6.53978 0.18396 14.1457 0.18396C18.3535 0.18396 21.351 1.79613 23.6031 3.89744L20.9422 6.4957C19.3272 5.01657 17.1392 3.86613 14.1417 3.86613C8.58754 3.86613 4.24357 8.237 4.24357 13.6605C4.24357 19.084 8.58754 23.4548 14.1417 23.4548C17.7443 23.4548 19.7961 22.0422 21.1105 20.7587C22.1765 19.7179 22.8778 18.2309 23.1543 16.2L14.1417 16.204Z" fill="#BCC3DC"/>
</svg>
