<svg width="16" height="16" viewBox="0 0 16 16" fill="none" xmlns="http://www.w3.org/2000/svg">
<path d="M7.99984 5.95841C8.764 5.17758 9.759 4.66675 10.9165 4.66675C12.1321 4.66675 13.2979 5.14963 14.1574 6.00917C15.017 6.86872 15.4998 8.03451 15.4998 9.25008V15.5001H13.8332V9.25008C13.8332 8.47653 13.5259 7.73467 12.9789 7.18769C12.4319 6.64071 11.6901 6.33341 10.9165 6.33341C10.143 6.33341 9.40109 6.64071 8.85411 7.18769C8.30713 7.73467 7.99984 8.47653 7.99984 9.25008V15.5001H6.33317V5.08341H7.99984V5.95841ZM2.1665 3.41675C1.83498 3.41675 1.51704 3.28505 1.28262 3.05063C1.0482 2.81621 0.916504 2.49827 0.916504 2.16675C0.916504 1.83523 1.0482 1.51729 1.28262 1.28286C1.51704 1.04844 1.83498 0.916748 2.1665 0.916748C2.49802 0.916748 2.81597 1.04844 3.05039 1.28286C3.28481 1.51729 3.4165 1.83523 3.4165 2.16675C3.4165 2.49827 3.28481 2.81621 3.05039 3.05063C2.81597 3.28505 2.49802 3.41675 2.1665 3.41675ZM1.33317 5.08341H2.99984V15.5001H1.33317V5.08341Z" fill="#CCD2E9"/>
</svg>
