<svg width="17" height="15" viewBox="0 0 17 15" fill="none" xmlns="http://www.w3.org/2000/svg">
<path d="M11.7501 2.62501C11.1167 2.62491 10.5086 2.87345 10.0567 3.31715C9.60472 3.76086 9.34501 4.36426 9.33343 4.99751L9.3101 6.31001C9.30873 6.38048 9.29248 6.44987 9.26242 6.51362C9.23235 6.57737 9.18914 6.63404 9.13563 6.67991C9.08212 6.72579 9.01952 6.75983 8.95193 6.77981C8.88434 6.7998 8.81328 6.80526 8.74343 6.79585L7.4426 6.61918C5.73093 6.38585 4.09093 5.59751 2.5176 4.28668C2.01926 7.04501 2.9926 8.95585 5.33676 10.43L6.7926 11.345C6.86177 11.3885 6.91924 11.4482 6.95997 11.5191C7.0007 11.5899 7.02346 11.6696 7.02626 11.7512C7.02906 11.8329 7.0118 11.914 6.97601 11.9874C6.94021 12.0609 6.88697 12.1244 6.82093 12.1725L5.49426 13.1417C6.28343 13.1908 7.0326 13.1558 7.65426 13.0325C11.5859 12.2475 14.2001 9.28918 14.2001 4.40918C14.2001 4.01085 13.3568 2.62501 11.7501 2.62501V2.62501ZM7.66676 4.96668C7.68131 4.16339 7.9325 3.38224 8.3889 2.72103C8.84529 2.05983 9.4866 1.54795 10.2325 1.24949C10.9785 0.951026 11.7959 0.879247 12.5824 1.04314C13.3689 1.20703 14.0896 1.5993 14.6543 2.17085C15.2468 2.16668 15.7509 2.31668 16.8784 1.63335C16.5993 3.00001 16.4618 3.59335 15.8668 4.40918C15.8668 10.7775 11.9526 13.8742 7.98093 14.6667C5.2576 15.21 1.2976 14.3175 0.162598 13.1325C0.740931 13.0875 3.09093 12.835 4.44926 11.8408C3.3001 11.0833 -1.27407 8.39168 1.73176 1.15501C3.1426 2.80251 4.57343 3.92418 6.02343 4.51918C6.98843 4.91501 7.2251 4.90668 7.6676 4.96751L7.66676 4.96668Z" fill="#CCD2E9"/>
</svg>
